<svg xmlns="http://www.w3.org/2000/svg" width="256" height="256" viewBox="0 0 256 256"><path fill="#02144B" d="M128 256c70.7 0 128-57.3 128-128S198.7 0 128 0 0 57.3 0 128s57.3 128 128 128z"/><path fill="#fff" d="M136.6 204.3V127h-22.9v77.3h22.9zm-11.4-90.3c7.9 0 12.9-5.3 12.9-12.2s-5-12.2-12.9-12.2c-7.9 0-12.9 5.3-12.9 12.2s5 12.2 12.9 12.2zM80.9 204.3V90.1h22.9v114.2H80.9zm72.1 0V149c0-12.8 9.3-20.7 20.9-20.7 10.3 0 17.5 6.4 17.5 20.7v55.3h22.9V149c0-26-17.2-41-40.4-41s-40.8 15-40.8 41v55.3h22.8z"/></svg>
